<svg height="464pt" fill="#fff" viewBox="0 -8 464 464" width="464pt" xmlns="http://www.w3.org/2000/svg"><path d="m3.589844 447.476562c1.136718.667969 2.433594 1.019532 3.753906 1.019532 1.136719 0 2.257812-.269532 3.273438-.785156l147.683593-76.371094 142.789063 76.328125c2.027344 1.082031 4.457031 1.101562 6.5.054687l152.375-78.0625c2.390625-1.171875 3.941406-3.566406 4.035156-6.226562v-356.445313c-.105469-2.46875-1.453125-4.714843-3.578125-5.972656-2.128906-1.257813-4.746094-1.351563-6.960937-.253906l-148.957032 76.398437-142.835937-75.152344c-2.015625-1.058593-4.417969-1.074218-6.449219-.042968l-151.160156 76.847656c-2.402344 1.167969-3.9609378 3.566406-4.058594 6.238281v356.445313c.0898438 2.476562 1.445312 4.734375 3.589844 5.980468zm293.410156-18.023437-132-70.269531v-339.441406l132 69.171874zm153-70.292969-139 71.222656v-340.710937l139-71.222656zm-436-269.820312 137-69.664063v339.550781l-137 70.765626zm0 0"/><path d="m338.953125 161.140625c1.109375 0 2.203125-.265625 3.191406-.773437l84.933594-43.578126c2.25-1.128906 3.71875-3.375 3.851563-5.886718.132812-2.515625-1.09375-4.902344-3.210938-6.261719s-4.800781-1.476563-7.03125-.308594l-84.933594 43.582031c-2.878906 1.472657-4.371094 4.730469-3.609375 7.875.757813 3.140626 3.574219 5.355469 6.808594 5.351563zm0 0"/><path d="m338.953125 210.488281c1.109375-.003906 2.203125-.265625 3.191406-.777343l84.933594-43.578126c2.25-1.128906 3.71875-3.375 3.851563-5.886718.132812-2.511719-1.09375-4.902344-3.210938-6.261719s-4.800781-1.476563-7.03125-.308594l-84.933594 43.582031c-2.878906 1.472657-4.375 4.730469-3.613281 7.875.761719 3.144532 3.578125 5.359376 6.8125 5.355469zm0 0"/><path d="m420.6875 203.027344-84.933594 43.578125c-2.238281 1.136719-3.695312 3.378906-3.820312 5.882812-.128906 2.503907 1.09375 4.886719 3.203125 6.242188 2.105469 1.359375 4.78125 1.484375 7.007812.332031l84.933594-43.582031c2.25-1.125 3.71875-3.375 3.851563-5.886719.132812-2.511719-1.09375-4.902344-3.210938-6.261719s-4.800781-1.476562-7.03125-.304687zm0 0"/><path d="m121.253906 223.75-84.9375 43.582031c-2.234375 1.136719-3.691406 3.378907-3.820312 5.882813-.125 2.507812 1.09375 4.886718 3.203125 6.246094 2.109375 1.355468 4.785156 1.480468 7.011719.328124l84.933593-43.582031c2.234375-1.136719 3.695313-3.378906 3.820313-5.882812.128906-2.503907-1.09375-4.886719-3.203125-6.242188-2.109375-1.359375-4.78125-1.484375-7.007813-.332031zm0 0"/><path d="m121.253906 273.101562-84.9375 43.578126c-2.234375 1.136718-3.691406 3.378906-3.820312 5.886718-.125 2.503906 1.09375 4.882813 3.203125 6.242188 2.109375 1.355468 4.785156 1.480468 7.011719.328125l84.933593-43.582031c2.234375-1.132813 3.695313-3.378907 3.820313-5.882813.128906-2.503906-1.09375-4.886719-3.203125-6.242187-2.109375-1.359376-4.78125-1.484376-7.007813-.328126zm0 0"/><path d="m274.539062 199.242188-78.558593-41.34375c-3.414063-1.757813-7.609375-.433594-9.398438 2.964843-1.789062 3.398438-.503906 7.605469 2.878907 9.425781l78.558593 41.339844c2.214844 1.191406 4.898438 1.101563 7.03125-.234375 2.132813-1.335937 3.382813-3.710937 3.277344-6.222656-.105469-2.515625-1.554687-4.777344-3.789063-5.929687zm0 0"/><path d="m189.460938 111.070312 78.558593 41.339844c2.214844 1.191406 4.898438 1.101563 7.03125-.234375 2.132813-1.335937 3.382813-3.710937 3.277344-6.226562-.105469-2.511719-1.554687-4.777344-3.789063-5.925781l-78.558593-41.34375c-3.421875-1.800782-7.652344-.484376-9.453125 2.933593-1.800782 3.421875-.488282 7.65625 2.933594 9.457031zm0 0"/><path d="m127.875 85.832031c-2.042969-1.273437-4.601562-1.367187-6.734375-.253906l-84.636719 43.578125c-2.261718 1.234375-3.625 3.652344-3.503906 6.226562v59.21875c-.09375 2.402344 1.085938 4.675782 3.105469 5.972657 1.054687.671875 2.28125 1.027343 3.53125 1.027343 1.089843 0 2.164062-.265624 3.132812-.769531l84.679688-43.582031c2.277343-1.226562 3.652343-3.644531 3.550781-6.226562v-59.21875c.085938-2.402344-1.101562-4.675782-3.125-5.972657zm-10.875 60.914063-70 36.394531v-43.480469l70-36.398437zm0 0"/><path d="m274.398438 268.328125-78.484376-41.34375c-2.109374-1.140625-4.664062-1.0625-6.699218.203125-2.058594 1.285156-3.28125 3.566406-3.214844 5.992188v69.089843c-.054688 2.574219 1.332031 4.964844 3.601562 6.191407l78.484376 41.34375c.992187.527343 2.101562.804687 3.226562.804687 1.226562 0 2.425781-.351563 3.460938-1.007813 2.0625-1.285156 3.289062-3.566406 3.226562-5.992187v-69.089844c.054688-2.574219-1.332031-4.964843-3.601562-6.191406zm-10.398438 63.6875-64-33.972656v-53.269531l64 33.972656zm0 0"/></svg>